<?xml version="1.0" encoding="UTF-8"?>
<svg xmlns="http://www.w3.org/2000/svg" xmlns:xlink="http://www.w3.org/1999/xlink" fill-opacity="1" color-rendering="auto" color-interpolation="auto" stroke="black" text-rendering="auto" stroke-linecap="square" width="633" stroke-miterlimit="10" stroke-opacity="1" shape-rendering="auto" fill="black" stroke-dasharray="none" font-weight="normal" stroke-width="1" height="603" font-family="'Dialog'" font-style="normal" stroke-linejoin="miter" font-size="12" stroke-dashoffset="0" image-rendering="auto">
  <!--Generated by ySVG-->
  <defs id="genericDefs"/>
  <g>
    <defs id="defs1">
      <linearGradient x1="62" gradientUnits="userSpaceOnUse" x2="128.0669" y1="-72" y2="-60.6383" id="linearGradient1" spreadMethod="pad">
        <stop stop-opacity="0.8627" stop-color="rgb(255,255,255)" offset="0%"/>
        <stop stop-opacity="0.1255" stop-color="rgb(255,255,255)" offset="100%"/>
      </linearGradient>
      <linearGradient x1="560" gradientUnits="userSpaceOnUse" x2="611.0668" y1="-83" y2="-54.1977" id="linearGradient2" spreadMethod="pad">
        <stop stop-opacity="0.8627" stop-color="rgb(255,255,255)" offset="0%"/>
        <stop stop-opacity="0.1255" stop-color="rgb(255,255,255)" offset="100%"/>
      </linearGradient>
      <linearGradient x1="560" gradientUnits="userSpaceOnUse" x2="611.0668" y1="73" y2="101.8023" id="linearGradient3" spreadMethod="pad">
        <stop stop-opacity="0.8627" stop-color="rgb(255,255,255)" offset="0%"/>
        <stop stop-opacity="0.1255" stop-color="rgb(255,255,255)" offset="100%"/>
      </linearGradient>
      <linearGradient x1="560" gradientUnits="userSpaceOnUse" x2="611.0668" y1="229" y2="257.8023" id="linearGradient4" spreadMethod="pad">
        <stop stop-opacity="0.8627" stop-color="rgb(255,255,255)" offset="0%"/>
        <stop stop-opacity="0.1255" stop-color="rgb(255,255,255)" offset="100%"/>
      </linearGradient>
      <linearGradient x1="226" gradientUnits="userSpaceOnUse" x2="229.2838" y1="3" y2="21.3182" id="linearGradient5" spreadMethod="pad">
        <stop stop-opacity="0.8627" stop-color="rgb(255,255,255)" offset="0%"/>
        <stop stop-opacity="0.1255" stop-color="rgb(255,255,255)" offset="100%"/>
      </linearGradient>
      <linearGradient x1="306" gradientUnits="userSpaceOnUse" x2="310.571" y1="11" y2="20.7996" id="linearGradient6" spreadMethod="pad">
        <stop stop-opacity="0.8627" stop-color="rgb(51,151,255)" offset="0%"/>
        <stop stop-opacity="0.1255" stop-color="rgb(51,151,255)" offset="100%"/>
      </linearGradient>
      <linearGradient x1="300" gradientUnits="userSpaceOnUse" x2="302.8279" y1="-56" y2="-37.4577" id="linearGradient7" spreadMethod="pad">
        <stop stop-opacity="0.8627" stop-color="rgb(255,255,255)" offset="0%"/>
        <stop stop-opacity="0.1255" stop-color="rgb(255,255,255)" offset="100%"/>
      </linearGradient>
      <linearGradient x1="348" gradientUnits="userSpaceOnUse" x2="350.4447" y1="3" y2="21.7054" id="linearGradient8" spreadMethod="pad">
        <stop stop-opacity="0.8627" stop-color="rgb(255,255,255)" offset="0%"/>
        <stop stop-opacity="0.1255" stop-color="rgb(255,255,255)" offset="100%"/>
      </linearGradient>
      <linearGradient x1="448" gradientUnits="userSpaceOnUse" x2="450.8847" y1="11" y2="22.5651" id="linearGradient9" spreadMethod="pad">
        <stop stop-opacity="0.8627" stop-color="rgb(51,151,255)" offset="0%"/>
        <stop stop-opacity="0.1255" stop-color="rgb(51,151,255)" offset="100%"/>
      </linearGradient>
      <linearGradient x1="197" gradientUnits="userSpaceOnUse" x2="199.111" y1="101" y2="119.8288" id="linearGradient10" spreadMethod="pad">
        <stop stop-opacity="0.8627" stop-color="rgb(255,255,255)" offset="0%"/>
        <stop stop-opacity="0.1255" stop-color="rgb(255,255,255)" offset="100%"/>
      </linearGradient>
      <linearGradient x1="297" gradientUnits="userSpaceOnUse" x2="298.851" y1="109" y2="121.2639" id="linearGradient11" spreadMethod="pad">
        <stop stop-opacity="0.8627" stop-color="rgb(51,151,255)" offset="0%"/>
        <stop stop-opacity="0.1255" stop-color="rgb(51,151,255)" offset="100%"/>
      </linearGradient>
      <linearGradient x1="378" gradientUnits="userSpaceOnUse" x2="380.4447" y1="101" y2="119.7054" id="linearGradient12" spreadMethod="pad">
        <stop stop-opacity="0.8627" stop-color="rgb(255,255,255)" offset="0%"/>
        <stop stop-opacity="0.1255" stop-color="rgb(255,255,255)" offset="100%"/>
      </linearGradient>
      <linearGradient x1="478" gradientUnits="userSpaceOnUse" x2="480.8847" y1="109" y2="120.5651" id="linearGradient13" spreadMethod="pad">
        <stop stop-opacity="0.8627" stop-color="rgb(51,151,255)" offset="0%"/>
        <stop stop-opacity="0.1255" stop-color="rgb(51,151,255)" offset="100%"/>
      </linearGradient>
      <linearGradient x1="227.75" gradientUnits="userSpaceOnUse" x2="230.5322" y1="166.6914" y2="185.2543" id="linearGradient14" spreadMethod="pad">
        <stop stop-opacity="0.8627" stop-color="rgb(255,255,255)" offset="0%"/>
        <stop stop-opacity="0.1255" stop-color="rgb(255,255,255)" offset="100%"/>
      </linearGradient>
      <linearGradient x1="288.75" gradientUnits="userSpaceOnUse" x2="290.601" y1="174.6914" y2="186.9554" id="linearGradient15" spreadMethod="pad">
        <stop stop-opacity="0.8627" stop-color="rgb(51,151,255)" offset="0%"/>
        <stop stop-opacity="0.1255" stop-color="rgb(51,151,255)" offset="100%"/>
      </linearGradient>
      <linearGradient x1="369.25" gradientUnits="userSpaceOnUse" x2="372.473" y1="166.6914" y2="185.0414" id="linearGradient16" spreadMethod="pad">
        <stop stop-opacity="0.8627" stop-color="rgb(255,255,255)" offset="0%"/>
        <stop stop-opacity="0.1255" stop-color="rgb(255,255,255)" offset="100%"/>
      </linearGradient>
      <linearGradient x1="451.25" gradientUnits="userSpaceOnUse" x2="455.821" y1="174.6914" y2="184.491" id="linearGradient17" spreadMethod="pad">
        <stop stop-opacity="0.8627" stop-color="rgb(51,151,255)" offset="0%"/>
        <stop stop-opacity="0.1255" stop-color="rgb(51,151,255)" offset="100%"/>
      </linearGradient>
      <linearGradient x1="212.875" gradientUnits="userSpaceOnUse" x2="215.1409" y1="258" y2="276.7737" id="linearGradient18" spreadMethod="pad">
        <stop stop-opacity="0.8627" stop-color="rgb(255,255,255)" offset="0%"/>
        <stop stop-opacity="0.1255" stop-color="rgb(255,255,255)" offset="100%"/>
      </linearGradient>
      <linearGradient x1="315.875" gradientUnits="userSpaceOnUse" x2="318.2804" y1="266" y2="277.9228" id="linearGradient19" spreadMethod="pad">
        <stop stop-opacity="0.8627" stop-color="rgb(51,151,255)" offset="0%"/>
        <stop stop-opacity="0.1255" stop-color="rgb(51,151,255)" offset="100%"/>
      </linearGradient>
      <linearGradient x1="381.625" gradientUnits="userSpaceOnUse" x2="384.848" y1="258" y2="276.35" id="linearGradient20" spreadMethod="pad">
        <stop stop-opacity="0.8627" stop-color="rgb(255,255,255)" offset="0%"/>
        <stop stop-opacity="0.1255" stop-color="rgb(255,255,255)" offset="100%"/>
      </linearGradient>
      <linearGradient x1="463.625" gradientUnits="userSpaceOnUse" x2="468.196" y1="266" y2="275.7996" id="linearGradient21" spreadMethod="pad">
        <stop stop-opacity="0.8627" stop-color="rgb(51,151,255)" offset="0%"/>
        <stop stop-opacity="0.1255" stop-color="rgb(51,151,255)" offset="100%"/>
      </linearGradient>
      <linearGradient x1="302.5" gradientUnits="userSpaceOnUse" x2="305.4488" y1="322.3828" y2="340.8689" id="linearGradient22" spreadMethod="pad">
        <stop stop-opacity="0.8627" stop-color="rgb(255,255,255)" offset="0%"/>
        <stop stop-opacity="0.1255" stop-color="rgb(255,255,255)" offset="100%"/>
      </linearGradient>
      <linearGradient x1="370.5" gradientUnits="userSpaceOnUse" x2="372.9054" y1="330.3828" y2="342.3056" id="linearGradient23" spreadMethod="pad">
        <stop stop-opacity="0.8627" stop-color="rgb(51,151,255)" offset="0%"/>
        <stop stop-opacity="0.1255" stop-color="rgb(51,151,255)" offset="100%"/>
      </linearGradient>
      <linearGradient x1="62" gradientUnits="userSpaceOnUse" x2="107.4136" y1="372" y2="403.5861" id="linearGradient24" spreadMethod="pad">
        <stop stop-opacity="0.8627" stop-color="rgb(51,151,255)" offset="0%"/>
        <stop stop-opacity="0.1255" stop-color="rgb(51,151,255)" offset="100%"/>
      </linearGradient>
      <linearGradient x1="560" gradientUnits="userSpaceOnUse" x2="605.4136" y1="372" y2="403.5861" id="linearGradient25" spreadMethod="pad">
        <stop stop-opacity="0.8627" stop-color="rgb(51,151,255)" offset="0%"/>
        <stop stop-opacity="0.1255" stop-color="rgb(51,151,255)" offset="100%"/>
      </linearGradient>
      <linearGradient x1="279.5" gradientUnits="userSpaceOnUse" x2="281.611" y1="419" y2="437.8288" id="linearGradient26" spreadMethod="pad">
        <stop stop-opacity="0.8627" stop-color="rgb(255,255,255)" offset="0%"/>
        <stop stop-opacity="0.1255" stop-color="rgb(255,255,255)" offset="100%"/>
      </linearGradient>
      <linearGradient x1="393.5" gradientUnits="userSpaceOnUse" x2="395.9054" y1="427" y2="438.9228" id="linearGradient27" spreadMethod="pad">
        <stop stop-opacity="0.8627" stop-color="rgb(51,151,255)" offset="0%"/>
        <stop stop-opacity="0.1255" stop-color="rgb(51,151,255)" offset="100%"/>
      </linearGradient>
      <clipPath clipPathUnits="userSpaceOnUse" id="clipPath1">
        <path d="M0 0 L633 0 L633 603 L0 603 L0 0 Z"/>
      </clipPath>
      <clipPath clipPathUnits="userSpaceOnUse" id="clipPath2">
        <path d="M47 -98 L680 -98 L680 505 L47 505 L47 -98 Z"/>
      </clipPath>
    </defs>
    <g fill="white" transform="translate(-47,98)" stroke="white">
      <rect x="47" width="633" height="603" y="-98" clip-path="url(#clipPath2)" stroke="none"/>
    </g>
    <g fill="rgb(51,151,255)" transform="matrix(1,0,0,1,-47,98)" stroke="rgb(51,151,255)">
      <rect x="62" y="-72" clip-path="url(#clipPath2)" width="105" rx="1.5" ry="1.5" height="444" stroke="none"/>
      <path fill="url(#linearGradient1)" d="M62.75 -69 Q62.75 -71.25 65 -71.25 L127.25 -71.25 Q129.5 -71.25 129.5 -69 Q129.5 -66.75 98.375 107.85 Q67.25 282.45 65 282.45 Q62.75 282.45 62.75 280.2 Z" clip-path="url(#clipPath2)" stroke="none"/>
    </g>
    <g stroke-miterlimit="1.45" font-family="'Verdana'" transform="matrix(1,0,0,1,-47,98)" stroke-linecap="butt">
      <text x="97.2822" xml:space="preserve" y="147.4805" clip-path="url(#clipPath2)" stroke="none">Client</text>
      <text x="104.8613" xml:space="preserve" y="162.0645" clip-path="url(#clipPath2)" stroke="none">(C)</text>
    </g>
    <g fill="rgb(51,151,255)" transform="matrix(1,0,0,1,-47,98)" stroke="rgb(51,151,255)">
      <rect x="560" y="-83" clip-path="url(#clipPath2)" width="105" rx="1.5" ry="1.5" height="143" stroke="none"/>
      <path fill="url(#linearGradient2)" d="M560.75 -80 Q560.75 -82.25 563 -82.25 L625.25 -82.25 Q627.5 -82.25 627.5 -80 Q627.5 -77.75 596.375 -23.55 Q565.25 30.65 563 30.65 Q560.75 30.65 560.75 28.4 Z" clip-path="url(#clipPath2)" stroke="none"/>
    </g>
    <g stroke-miterlimit="1.45" font-family="'Verdana'" transform="matrix(1,0,0,1,-47,98)" stroke-linecap="butt">
      <text x="568.8799" xml:space="preserve" y="-21.3115" clip-path="url(#clipPath2)" stroke="none">Authentication</text>
      <text x="592.5781" xml:space="preserve" y="-6.7275" clip-path="url(#clipPath2)" stroke="none">Server</text>
      <text x="598.8477" xml:space="preserve" y="7.8564" clip-path="url(#clipPath2)" stroke="none">(AS)</text>
    </g>
    <g fill="rgb(51,151,255)" transform="matrix(1,0,0,1,-47,98)" stroke="rgb(51,151,255)">
      <rect x="560" y="73" clip-path="url(#clipPath2)" width="105" rx="1.5" ry="1.5" height="143" stroke="none"/>
      <path fill="url(#linearGradient3)" d="M560.75 76 Q560.75 73.75 563 73.75 L625.25 73.75 Q627.5 73.75 627.5 76 Q627.5 78.25 596.375 132.45 Q565.25 186.65 563 186.65 Q560.75 186.65 560.75 184.4 Z" clip-path="url(#clipPath2)" stroke="none"/>
    </g>
    <g stroke-miterlimit="1.45" font-family="'Verdana'" transform="matrix(1,0,0,1,-47,98)" stroke-linecap="butt">
      <text x="594.541" xml:space="preserve" y="127.3965" clip-path="url(#clipPath2)" stroke="none">Ticket</text>
      <text x="586.3408" xml:space="preserve" y="141.9805" clip-path="url(#clipPath2)" stroke="none">Granting</text>
      <text x="592.5781" xml:space="preserve" y="156.5645" clip-path="url(#clipPath2)" stroke="none">Server</text>
      <text x="594.5996" xml:space="preserve" y="171.1484" clip-path="url(#clipPath2)" stroke="none">(TGS)</text>
    </g>
    <g fill="rgb(51,151,255)" transform="matrix(1,0,0,1,-47,98)" stroke="rgb(51,151,255)">
      <rect x="560" y="229" clip-path="url(#clipPath2)" width="105" rx="1.5" ry="1.5" height="143" stroke="none"/>
      <path fill="url(#linearGradient4)" d="M560.75 232 Q560.75 229.75 563 229.75 L625.25 229.75 Q627.5 229.75 627.5 232 Q627.5 234.25 596.375 288.45 Q565.25 342.65 563 342.65 Q560.75 342.65 560.75 340.4 Z" clip-path="url(#clipPath2)" stroke="none"/>
    </g>
    <g stroke-miterlimit="1.45" font-family="'Verdana'" transform="matrix(1,0,0,1,-47,98)" stroke-linecap="butt">
      <text x="590.3662" xml:space="preserve" y="297.9805" clip-path="url(#clipPath2)" stroke="none">Service</text>
      <text x="602.9492" xml:space="preserve" y="312.5645" clip-path="url(#clipPath2)" stroke="none">(S)</text>
    </g>
    <g fill="rgb(153,153,153)" transform="matrix(1,0,0,1,-47,98)" stroke="rgb(153,153,153)">
      <rect x="226" y="3" clip-path="url(#clipPath2)" width="110" rx="1.5" ry="1.5" height="24" stroke="none"/>
      <path fill="url(#linearGradient5)" d="M226.75 6 Q226.75 3.75 229 3.75 L294.5 3.75 Q296.75 3.75 296.75 6 Q296.75 8.25 264 14.85 Q231.25 21.45 229 21.45 Q226.75 21.45 226.75 19.2 Z" clip-path="url(#clipPath2)" stroke="none"/>
    </g>
    <g stroke-miterlimit="1.45" font-family="'Verdana'" transform="matrix(1,0,0,1,-47,98)" stroke-linecap="butt">
      <text x="228" xml:space="preserve" y="19.7725" clip-path="url(#clipPath2)" stroke="none"> SK(C, TGS)</text>
    </g>
    <g fill="rgb(51,151,255)" transform="matrix(1,0,0,1,-47,98)" stroke="rgb(51,151,255)">
      <rect x="306" y="11" clip-path="url(#clipPath2)" width="30" rx="1.5" ry="1.5" height="16" stroke="none"/>
      <path fill="url(#linearGradient6)" d="M306.75 14 Q306.75 11.75 309 11.75 L322.5 11.75 Q324.75 11.75 324.75 14 Q324.75 16.25 318 19.65 Q311.25 23.05 309 23.05 Q306.75 23.05 306.75 20.8 Z" clip-path="url(#clipPath2)" stroke="none"/>
    </g>
    <g font-size="11" stroke-miterlimit="1.45" font-family="'Verdana'" transform="matrix(1,0,0,1,-47,98)" stroke-linecap="butt">
      <text x="308.3538" xml:space="preserve" y="23.3748" clip-path="url(#clipPath2)" stroke="none">K(C)</text>
    </g>
    <g fill="rgb(153,153,153)" transform="matrix(1,0,0,1,-47,98)" stroke="rgb(153,153,153)">
      <rect x="300" y="-56" clip-path="url(#clipPath2)" width="127" rx="1.5" ry="1.5" height="24" stroke="none"/>
      <path fill="url(#linearGradient7)" d="M300.75 -53 Q300.75 -55.25 303 -55.25 L379.55 -55.25 Q381.8 -55.25 381.8 -53 Q381.8 -50.75 343.525 -44.15 Q305.25 -37.55 303 -37.55 Q300.75 -37.55 300.75 -39.8 Z" clip-path="url(#clipPath2)" stroke="none"/>
    </g>
    <g stroke-miterlimit="1.45" font-family="'Verdana'" transform="matrix(1,0,0,1,-47,98)" stroke-linecap="butt">
      <text x="300.7959" xml:space="preserve" y="-39.2275" clip-path="url(#clipPath2)" stroke="none"> Name(C), Name(S) </text>
    </g>
    <g fill="rgb(153,153,153)" transform="matrix(1,0,0,1,-47,98)" stroke="rgb(153,153,153)">
      <rect x="348" y="3" clip-path="url(#clipPath2)" width="146" rx="1.5" ry="1.5" height="24" stroke="none"/>
      <path fill="url(#linearGradient8)" d="M348.75 6 Q348.75 3.75 351 3.75 L439.9 3.75 Q442.15 3.75 442.15 6 Q442.15 8.25 397.7 14.85 Q353.25 21.45 351 21.45 Q348.75 21.45 348.75 19.2 Z" clip-path="url(#clipPath2)" stroke="none"/>
    </g>
    <g stroke-miterlimit="1.45" font-family="'Verdana'" transform="matrix(1,0,0,1,-47,98)" stroke-linecap="butt">
      <text x="350" xml:space="preserve" y="19.7725" clip-path="url(#clipPath2)" stroke="none"> Ticket(C, TGS)</text>
    </g>
    <g fill="rgb(51,151,255)" transform="matrix(1,0,0,1,-47,98)" stroke="rgb(51,151,255)">
      <rect x="448" y="11" clip-path="url(#clipPath2)" width="46" rx="1.5" ry="1.5" height="16" stroke="none"/>
      <path fill="url(#linearGradient9)" d="M448.75 14 Q448.75 11.75 451 11.75 L474.9 11.75 Q477.15 11.75 477.15 14 Q477.15 16.25 465.2 19.65 Q453.25 23.05 451 23.05 Q448.75 23.05 448.75 20.8 Z" clip-path="url(#clipPath2)" stroke="none"/>
    </g>
    <g font-size="11" stroke-miterlimit="1.45" font-family="'Verdana'" transform="matrix(1,0,0,1,-47,98)" stroke-linecap="butt">
      <text x="450.7805" xml:space="preserve" y="23.3748" clip-path="url(#clipPath2)" stroke="none">K(TGS)</text>
    </g>
    <g fill="rgb(153,153,153)" transform="matrix(1,0,0,1,-47,98)" stroke="rgb(153,153,153)">
      <rect x="197" y="101" clip-path="url(#clipPath2)" width="168" rx="1.5" ry="1.5" height="24" stroke="none"/>
      <path fill="url(#linearGradient10)" d="M197.75 104 Q197.75 101.75 200 101.75 L303.2 101.75 Q305.45 101.75 305.45 104 Q305.45 106.25 253.85 112.85 Q202.25 119.45 200 119.45 Q197.75 119.45 197.75 117.2 Z" clip-path="url(#clipPath2)" stroke="none"/>
    </g>
    <g stroke-miterlimit="1.45" font-family="'Verdana'" transform="matrix(1,0,0,1,-47,98)" stroke-linecap="butt">
      <text x="199" xml:space="preserve" y="117.7725" clip-path="url(#clipPath2)" stroke="none"> Name(C), Time</text>
    </g>
    <g fill="rgb(51,151,255)" transform="matrix(1,0,0,1,-47,98)" stroke="rgb(51,151,255)">
      <rect x="297" y="109" clip-path="url(#clipPath2)" width="68" rx="1.5" ry="1.5" height="16" stroke="none"/>
      <path fill="url(#linearGradient11)" d="M297.75 112 Q297.75 109.75 300 109.75 L338.2 109.75 Q340.45 109.75 340.45 112 Q340.45 114.25 321.35 117.65 Q302.25 121.05 300 121.05 Q297.75 121.05 297.75 118.8 Z" clip-path="url(#clipPath2)" stroke="none"/>
    </g>
    <g font-size="11" stroke-miterlimit="1.45" font-family="'Verdana'" transform="matrix(1,0,0,1,-47,98)" stroke-linecap="butt">
      <text x="299.2461" xml:space="preserve" y="121.3748" clip-path="url(#clipPath2)" stroke="none">SK(C, TGS)</text>
    </g>
    <g fill="rgb(153,153,153)" transform="matrix(1,0,0,1,-47,98)" stroke="rgb(153,153,153)">
      <rect x="378" y="101" clip-path="url(#clipPath2)" width="146" rx="1.5" ry="1.5" height="24" stroke="none"/>
      <path fill="url(#linearGradient12)" d="M378.75 104 Q378.75 101.75 381 101.75 L469.9 101.75 Q472.15 101.75 472.15 104 Q472.15 106.25 427.7 112.85 Q383.25 119.45 381 119.45 Q378.75 119.45 378.75 117.2 Z" clip-path="url(#clipPath2)" stroke="none"/>
    </g>
    <g stroke-miterlimit="1.45" font-family="'Verdana'" transform="matrix(1,0,0,1,-47,98)" stroke-linecap="butt">
      <text x="380" xml:space="preserve" y="117.7725" clip-path="url(#clipPath2)" stroke="none"> Ticket(C, TGS)</text>
    </g>
    <g fill="rgb(51,151,255)" transform="matrix(1,0,0,1,-47,98)" stroke="rgb(51,151,255)">
      <rect x="478" y="109" clip-path="url(#clipPath2)" width="46" rx="1.5" ry="1.5" height="16" stroke="none"/>
      <path fill="url(#linearGradient13)" d="M478.75 112 Q478.75 109.75 481 109.75 L504.9 109.75 Q507.15 109.75 507.15 112 Q507.15 114.25 495.2 117.65 Q483.25 121.05 481 121.05 Q478.75 121.05 478.75 118.8 Z" clip-path="url(#clipPath2)" stroke="none"/>
    </g>
    <g font-size="11" stroke-miterlimit="1.45" font-family="'Verdana'" transform="matrix(1,0,0,1,-47,98)" stroke-linecap="butt">
      <text x="480.7805" xml:space="preserve" y="121.3748" clip-path="url(#clipPath2)" stroke="none">K(TGS)</text>
    </g>
    <g fill="rgb(153,153,153)" transform="matrix(1,0,0,1,-47,98)" stroke="rgb(153,153,153)">
      <rect x="227.75" y="166.6914" clip-path="url(#clipPath2)" width="129" rx="1.5" ry="1.5" height="24" stroke="none"/>
      <path fill="url(#linearGradient14)" d="M228.5 169.6914 Q228.5 167.4414 230.75 167.4414 L308.6 167.4414 Q310.85 167.4414 310.85 169.6914 Q310.85 171.9414 271.925 178.5414 Q233 185.1414 230.75 185.1414 Q228.5 185.1414 228.5 182.8914 Z" clip-path="url(#clipPath2)" stroke="none"/>
    </g>
    <g stroke-miterlimit="1.45" font-family="'Verdana'" transform="matrix(1,0,0,1,-47,98)" stroke-linecap="butt">
      <text x="229.75" xml:space="preserve" y="183.4639" clip-path="url(#clipPath2)" stroke="none"> SK(C, S)</text>
    </g>
    <g fill="rgb(51,151,255)" transform="matrix(1,0,0,1,-47,98)" stroke="rgb(51,151,255)">
      <rect x="288.75" y="174.6914" clip-path="url(#clipPath2)" width="68" rx="1.5" ry="1.5" height="16" stroke="none"/>
      <path fill="url(#linearGradient15)" d="M289.5 177.6914 Q289.5 175.4414 291.75 175.4414 L329.95 175.4414 Q332.2 175.4414 332.2 177.6914 Q332.2 179.9414 313.1 183.3414 Q294 186.7414 291.75 186.7414 Q289.5 186.7414 289.5 184.4914 Z" clip-path="url(#clipPath2)" stroke="none"/>
    </g>
    <g font-size="11" stroke-miterlimit="1.45" font-family="'Verdana'" transform="matrix(1,0,0,1,-47,98)" stroke-linecap="butt">
      <text x="290.9961" xml:space="preserve" y="187.0662" clip-path="url(#clipPath2)" stroke="none">SK(C, TGS)</text>
    </g>
    <g fill="rgb(153,153,153)" transform="matrix(1,0,0,1,-47,98)" stroke="rgb(153,153,153)">
      <rect x="369.25" y="166.6914" clip-path="url(#clipPath2)" width="112" rx="1.5" ry="1.5" height="24" stroke="none"/>
      <path fill="url(#linearGradient16)" d="M370 169.6914 Q370 167.4414 372.25 167.4414 L439.05 167.4414 Q441.3 167.4414 441.3 169.6914 Q441.3 171.9414 407.9 178.5414 Q374.5 185.1414 372.25 185.1414 Q370 185.1414 370 182.8914 Z" clip-path="url(#clipPath2)" stroke="none"/>
    </g>
    <g stroke-miterlimit="1.45" font-family="'Verdana'" transform="matrix(1,0,0,1,-47,98)" stroke-linecap="butt">
      <text x="371.25" xml:space="preserve" y="183.4639" clip-path="url(#clipPath2)" stroke="none"> Ticket(C, S)</text>
    </g>
    <g fill="rgb(51,151,255)" transform="matrix(1,0,0,1,-47,98)" stroke="rgb(51,151,255)">
      <rect x="451.25" y="174.6914" clip-path="url(#clipPath2)" width="30" rx="1.5" ry="1.5" height="16" stroke="none"/>
      <path fill="url(#linearGradient17)" d="M452 177.6914 Q452 175.4414 454.25 175.4414 L467.75 175.4414 Q470 175.4414 470 177.6914 Q470 179.9414 463.25 183.3414 Q456.5 186.7414 454.25 186.7414 Q452 186.7414 452 184.4914 Z" clip-path="url(#clipPath2)" stroke="none"/>
    </g>
    <g font-size="11" stroke-miterlimit="1.45" font-family="'Verdana'" transform="matrix(1,0,0,1,-47,98)" stroke-linecap="butt">
      <text x="453.6843" xml:space="preserve" y="187.0662" clip-path="url(#clipPath2)" stroke="none">K(S)</text>
    </g>
    <g fill="rgb(153,153,153)" transform="matrix(1,0,0,1,-47,98)" stroke="rgb(153,153,153)">
      <rect x="212.875" y="258" clip-path="url(#clipPath2)" width="157" rx="1.5" ry="1.5" height="24" stroke="none"/>
      <path fill="url(#linearGradient18)" d="M213.625 261 Q213.625 258.75 215.875 258.75 L311.925 258.75 Q314.175 258.75 314.175 261 Q314.175 263.25 266.15 269.85 Q218.125 276.45 215.875 276.45 Q213.625 276.45 213.625 274.2 Z" clip-path="url(#clipPath2)" stroke="none"/>
    </g>
    <g stroke-miterlimit="1.45" font-family="'Verdana'" transform="matrix(1,0,0,1,-47,98)" stroke-linecap="butt">
      <text x="214.875" xml:space="preserve" y="274.7725" clip-path="url(#clipPath2)" stroke="none"> Name(C), Time</text>
    </g>
    <g fill="rgb(51,151,255)" transform="matrix(1,0,0,1,-47,98)" stroke="rgb(51,151,255)">
      <rect x="315.875" y="266" clip-path="url(#clipPath2)" width="54" rx="1.5" ry="1.5" height="16" stroke="none"/>
      <path fill="url(#linearGradient19)" d="M316.625 269 Q316.625 266.75 318.875 266.75 L347.975 266.75 Q350.225 266.75 350.225 269 Q350.225 271.25 335.675 274.65 Q321.125 278.05 318.875 278.05 Q316.625 278.05 316.625 275.8 Z" clip-path="url(#clipPath2)" stroke="none"/>
    </g>
    <g font-size="11" stroke-miterlimit="1.45" font-family="'Verdana'" transform="matrix(1,0,0,1,-47,98)" stroke-linecap="butt">
      <text x="318.7749" xml:space="preserve" y="278.3748" clip-path="url(#clipPath2)" stroke="none">SK(C, S)</text>
    </g>
    <g fill="rgb(153,153,153)" transform="matrix(1,0,0,1,-47,98)" stroke="rgb(153,153,153)">
      <rect x="381.625" y="258" clip-path="url(#clipPath2)" width="112" rx="1.5" ry="1.5" height="24" stroke="none"/>
      <path fill="url(#linearGradient20)" d="M382.375 261 Q382.375 258.75 384.625 258.75 L451.425 258.75 Q453.675 258.75 453.675 261 Q453.675 263.25 420.275 269.85 Q386.875 276.45 384.625 276.45 Q382.375 276.45 382.375 274.2 Z" clip-path="url(#clipPath2)" stroke="none"/>
    </g>
    <g stroke-miterlimit="1.45" font-family="'Verdana'" transform="matrix(1,0,0,1,-47,98)" stroke-linecap="butt">
      <text x="383.625" xml:space="preserve" y="274.7725" clip-path="url(#clipPath2)" stroke="none"> Ticket(C, S)</text>
    </g>
    <g fill="rgb(51,151,255)" transform="matrix(1,0,0,1,-47,98)" stroke="rgb(51,151,255)">
      <rect x="463.625" y="266" clip-path="url(#clipPath2)" width="30" rx="1.5" ry="1.5" height="16" stroke="none"/>
      <path fill="url(#linearGradient21)" d="M464.375 269 Q464.375 266.75 466.625 266.75 L480.125 266.75 Q482.375 266.75 482.375 269 Q482.375 271.25 475.625 274.65 Q468.875 278.05 466.625 278.05 Q464.375 278.05 464.375 275.8 Z" clip-path="url(#clipPath2)" stroke="none"/>
    </g>
    <g font-size="11" stroke-miterlimit="1.45" font-family="'Verdana'" transform="matrix(1,0,0,1,-47,98)" stroke-linecap="butt">
      <text x="466.0593" xml:space="preserve" y="278.3748" clip-path="url(#clipPath2)" stroke="none">K(S)</text>
    </g>
    <g fill="rgb(153,153,153)" transform="matrix(1,0,0,1,-47,98)" stroke="rgb(153,153,153)">
      <rect x="302.5" y="322.3828" clip-path="url(#clipPath2)" width="122" rx="1.5" ry="1.5" height="24" stroke="none"/>
      <path fill="url(#linearGradient22)" d="M303.25 325.3828 Q303.25 323.1328 305.5 323.1328 L378.8 323.1328 Q381.05 323.1328 381.05 325.3828 Q381.05 327.6328 344.4 334.2328 Q307.75 340.8328 305.5 340.8328 Q303.25 340.8328 303.25 338.5828 Z" clip-path="url(#clipPath2)" stroke="none"/>
    </g>
    <g stroke-miterlimit="1.45" font-family="'Verdana'" transform="matrix(1,0,0,1,-47,98)" stroke-linecap="butt">
      <text x="304.5" xml:space="preserve" y="339.1553" clip-path="url(#clipPath2)" stroke="none"> Time + 1</text>
    </g>
    <g fill="rgb(51,151,255)" transform="matrix(1,0,0,1,-47,98)" stroke="rgb(51,151,255)">
      <rect x="370.5" y="330.3828" clip-path="url(#clipPath2)" width="54" rx="1.5" ry="1.5" height="16" stroke="none"/>
      <path fill="url(#linearGradient23)" d="M371.25 333.3828 Q371.25 331.1328 373.5 331.1328 L402.6 331.1328 Q404.85 331.1328 404.85 333.3828 Q404.85 335.6328 390.3 339.0328 Q375.75 342.4328 373.5 342.4328 Q371.25 342.4328 371.25 340.1828 Z" clip-path="url(#clipPath2)" stroke="none"/>
    </g>
    <g font-size="11" stroke-miterlimit="1.45" font-family="'Verdana'" transform="matrix(1,0,0,1,-47,98)" stroke-linecap="butt">
      <text x="373.3999" xml:space="preserve" y="342.7576" clip-path="url(#clipPath2)" stroke="none">SK(C, S)</text>
    </g>
    <g fill="rgb(44,102,222)" transform="matrix(1,0,0,1,-47,98)" stroke="rgb(44,102,222)">
      <rect x="62" y="372" clip-path="url(#clipPath2)" width="105" rx="1.5" ry="1.5" height="118" stroke="none"/>
      <path fill="url(#linearGradient24)" d="M62.75 375 Q62.75 372.75 65 372.75 L127.25 372.75 Q129.5 372.75 129.5 375 Q129.5 377.25 98.375 421.45 Q67.25 465.65 65 465.65 Q62.75 465.65 62.75 463.4 Z" clip-path="url(#clipPath2)" stroke="none"/>
    </g>
    <g stroke-miterlimit="1.45" font-family="'Verdana'" transform="matrix(1,0,0,1,-47,98)" stroke-linecap="butt">
      <text x="97.2822" xml:space="preserve" y="428.4805" clip-path="url(#clipPath2)" stroke="none">Client</text>
      <text x="88.9414" xml:space="preserve" y="443.0645" clip-path="url(#clipPath2)" stroke="none">Program</text>
    </g>
    <g fill="rgb(44,102,222)" transform="matrix(1,0,0,1,-47,98)" stroke="rgb(44,102,222)">
      <rect x="560" y="372" clip-path="url(#clipPath2)" width="105" rx="1.5" ry="1.5" height="118" stroke="none"/>
      <path fill="url(#linearGradient25)" d="M560.75 375 Q560.75 372.75 563 372.75 L625.25 372.75 Q627.5 372.75 627.5 375 Q627.5 377.25 596.375 421.45 Q565.25 465.65 563 465.65 Q560.75 465.65 560.75 463.4 Z" clip-path="url(#clipPath2)" stroke="none"/>
    </g>
    <g stroke-miterlimit="1.45" font-family="'Verdana'" transform="matrix(1,0,0,1,-47,98)" stroke-linecap="butt">
      <text x="592.5781" xml:space="preserve" y="428.4805" clip-path="url(#clipPath2)" stroke="none">Server</text>
      <text x="586.9414" xml:space="preserve" y="443.0645" clip-path="url(#clipPath2)" stroke="none">Program</text>
    </g>
    <g fill="rgb(153,153,153)" transform="matrix(1,0,0,1,-47,98)" stroke="rgb(153,153,153)">
      <rect x="279.5" y="419" clip-path="url(#clipPath2)" width="168" rx="1.5" ry="1.5" height="24" stroke="none"/>
      <path fill="url(#linearGradient26)" d="M280.25 422 Q280.25 419.75 282.5 419.75 L385.7 419.75 Q387.95 419.75 387.95 422 Q387.95 424.25 336.35 430.85 Q284.75 437.45 282.5 437.45 Q280.25 437.45 280.25 435.2 Z" clip-path="url(#clipPath2)" stroke="none"/>
    </g>
    <g stroke-miterlimit="1.45" font-family="'Verdana'" transform="matrix(1,0,0,1,-47,98)" stroke-linecap="butt">
      <text x="281.5" xml:space="preserve" y="435.7725" clip-path="url(#clipPath2)" stroke="none"> Encrypted Data</text>
    </g>
    <g fill="rgb(51,151,255)" transform="matrix(1,0,0,1,-47,98)" stroke="rgb(51,151,255)">
      <rect x="393.5" y="427" clip-path="url(#clipPath2)" width="54" rx="1.5" ry="1.5" height="16" stroke="none"/>
      <path fill="url(#linearGradient27)" d="M394.25 430 Q394.25 427.75 396.5 427.75 L425.6 427.75 Q427.85 427.75 427.85 430 Q427.85 432.25 413.3 435.65 Q398.75 439.05 396.5 439.05 Q394.25 439.05 394.25 436.8 Z" clip-path="url(#clipPath2)" stroke="none"/>
    </g>
    <g font-size="11" stroke-miterlimit="1.45" font-family="'Verdana'" transform="matrix(1,0,0,1,-47,98)" stroke-linecap="butt">
      <text x="396.3999" xml:space="preserve" y="439.3748" clip-path="url(#clipPath2)" stroke="none">SK(C, S)</text>
    </g>
    <g stroke-width="2" stroke-miterlimit="1.45" transform="matrix(1,0,0,1,-47,98)" stroke-linecap="butt">
      <path fill="none" d="M166.976 -24.3333 L550.9846 -24.3333" clip-path="url(#clipPath2)"/>
    </g>
    <g stroke-width="2" stroke-miterlimit="1.45" transform="matrix(1,0,0,1,-47,98)" stroke-linecap="butt">
      <path d="M559.9846 -24.3333 L546.4846 -29.9583 L549.8596 -24.3333 L546.4846 -18.7083 Z" clip-path="url(#clipPath2)" stroke="none"/>
      <path fill="none" d="M559.9986 -3 L176.0183 -3" clip-path="url(#clipPath2)"/>
      <path d="M167.0183 -3 L180.5183 2.625 L177.1433 -3 L180.5183 -8.625 Z" clip-path="url(#clipPath2)" stroke="none"/>
      <path fill="none" d="M166.9838 134.6914 L551.0029 134.6914" clip-path="url(#clipPath2)"/>
      <path d="M560.0029 134.6914 L546.5029 129.0664 L549.8779 134.6914 L546.5029 140.3164 Z" clip-path="url(#clipPath2)" stroke="none"/>
      <path fill="none" d="M560.0215 154.6914 L175.9835 154.6914" clip-path="url(#clipPath2)"/>
      <path d="M166.9835 154.6914 L180.4835 160.3164 L177.1085 154.6914 L180.4835 149.0664 Z" clip-path="url(#clipPath2)" stroke="none"/>
      <path fill="none" d="M167.0064 288.6914 L551.0112 288.6914" clip-path="url(#clipPath2)"/>
      <path d="M560.0112 288.6914 L546.5112 283.0664 L549.8862 288.6914 L546.5112 294.3164 Z" clip-path="url(#clipPath2)" stroke="none"/>
      <path fill="none" d="M559.9747 311.6914 L175.9831 311.6914" clip-path="url(#clipPath2)"/>
      <path d="M166.9831 311.6914 L180.4831 317.3164 L177.1081 311.6914 L180.4831 306.0664 Z" clip-path="url(#clipPath2)" stroke="none"/>
      <path fill="none" d="M167.0065 415.2527 L551.0154 415.2527" clip-path="url(#clipPath2)"/>
      <path d="M560.0154 415.2527 L546.5154 409.6277 L549.8904 415.2527 L546.5154 420.8777 Z" clip-path="url(#clipPath2)" stroke="none"/>
      <path fill="none" d="M559.9755 446.2793 L176.0063 446.2793" clip-path="url(#clipPath2)"/>
      <path d="M167.0063 446.2793 L180.5063 451.9043 L177.1313 446.2793 L180.5063 440.6543 Z" clip-path="url(#clipPath2)" stroke="none"/>
    </g>
  </g>
</svg>
